<svg version="1.1" xmlns="http://www.w3.org/2000/svg" xmlns:xlink="http://www.w3.org/1999/xlink" width="125.89756" height="110.42506" viewBox="0,0,125.89756,110.42506"><g transform="translate(-167.17643,-82.80311)"><g data-paper-data="{&quot;isPaintingLayer&quot;:true}" fill-rule="nonzero" stroke="none" stroke-width="0" stroke-linecap="butt" stroke-linejoin="miter" stroke-miterlimit="10" stroke-dasharray="" stroke-dashoffset="0" style="mix-blend-mode: normal"><path d="M245.09156,82.82627l1.81969,89.77162l-35.97852,0.72929l-1.81969,-89.77162z" data-paper-data="{&quot;origPos&quot;:null,&quot;index&quot;:null}" fill="#c99950"/><path d="M273.61403,142.93452l-89.76655,2.05507l-0.82363,-35.97648l89.76656,-2.05507z" data-paper-data="{&quot;origPos&quot;:null,&quot;origRot&quot;:0,&quot;index&quot;:null}" fill="#c99950"/><path d="M209.34669,120.94191c14.37228,-0.29133 26.25947,11.12352 26.5508,25.49579c0.29133,14.37228 -11.12353,26.25947 -25.4958,26.5508c-14.37228,0.29133 -26.25946,-11.12353 -26.55079,-25.49581c-0.29133,-14.37228 11.12352,-26.25946 25.4958,-26.55079z" data-paper-data="{&quot;origPos&quot;:null,&quot;index&quot;:null}" fill="#c99950"/><path d="M247.07881,120.52654c14.37229,-0.29133 26.25947,11.12351 26.5508,25.49578c0.29133,14.37226 -11.12353,26.25944 -25.49581,26.55077c-14.37228,0.29133 -26.25946,-11.1235 -26.55079,-25.49578c-0.29133,-14.37227 11.12352,-26.25945 25.4958,-26.55078z" data-paper-data="{&quot;origPos&quot;:null,&quot;index&quot;:null}" fill="#c99950"/><path d="M245.96482,82.80856c14.37229,-0.29133 26.25947,11.12351 26.5508,25.49578c0.29133,14.37226 -11.12353,26.25944 -25.49581,26.55077c-14.37228,0.29133 -26.25947,-11.1235 -26.5508,-25.49577c-0.29133,-14.37227 11.12353,-26.25945 25.49581,-26.55078z" data-paper-data="{&quot;origPos&quot;:null,&quot;index&quot;:null}" fill="#c99950"/><path d="M208.94546,83.90842c14.37228,-0.29133 26.25947,11.1235 26.5508,25.49577c0.29133,14.37226 -11.12353,26.25944 -25.49581,26.55077c-14.37227,0.29133 -26.25945,-11.1235 -26.55078,-25.49578c-0.29133,-14.37226 11.12351,-26.25944 25.49579,-26.55077z" data-paper-data="{&quot;origPos&quot;:null,&quot;index&quot;:null}" fill="#c99950"/><path d="M266.51773,141.17611c14.37228,-0.29133 26.25947,11.12352 26.5508,25.49579c0.29133,14.37228 -11.12353,26.25947 -25.4958,26.5508c-14.37228,0.29133 -26.25946,-11.12353 -26.55079,-25.49581c-0.29133,-14.37228 11.12352,-26.25946 25.4958,-26.55079z" data-paper-data="{&quot;index&quot;:null}" fill="#c99950"/><path d="M192.67768,141.09965c14.37228,-0.29133 26.25947,11.12352 26.5508,25.49579c0.29133,14.37228 -11.12353,26.25947 -25.4958,26.5508c-14.37228,0.29133 -26.25946,-11.12353 -26.55079,-25.49581c-0.29133,-14.37228 11.12352,-26.25946 25.4958,-26.55079z" data-paper-data="{&quot;index&quot;:null}" fill="#c99950"/><path d="M229.16764,88.05525c21.37396,-0.43326 39.0522,16.54252 39.48546,37.91648c0.20714,10.21873 -9.89447,26.64133 -9.89447,26.64133c0,0 -16.86681,12.61801 -28.02203,12.84413c-9.14755,0.18542 -24.34977,-7.98994 -24.34977,-7.98994c0,0 -14.88784,-17.70016 -15.13567,-29.92657c-0.43326,-21.37397 16.54252,-39.05218 37.91648,-39.48544z" data-paper-data="{&quot;index&quot;:null}" fill="#ffc266"/><path d="M207.42801,158.23196c4.78316,-6.57488 16.53009,-19.19891 23.82901,-19.34686c2.47648,-0.0502 17.86246,16.836 20.08474,18.88601c2.22228,2.05001 3.09665,3.17257 3.33654,3.94048c0.38049,1.21801 -0.83528,1.54378 -0.80042,3.26313c0.21653,10.6822 -12.41859,0.74857 -23.1008,0.9651c-10.6822,0.21653 -23.61746,9.29735 -23.83399,-1.38484c-0.06858,-3.38328 -4.29825,0.25185 0.48491,-6.32303z" data-paper-data="{&quot;index&quot;:null}" fill="#c99950"/><path d="M209.69068,145.51287c-4.54164,0.09206 -8.36484,-6.81324 -8.53937,-15.42342c-0.17453,-8.61018 3.36571,-15.66474 7.90734,-15.7568c4.54164,-0.09206 8.36484,6.81324 8.53937,15.42342c0.17453,8.61018 -3.36571,15.66474 -7.90734,15.7568z" data-paper-data="{&quot;index&quot;:null}" fill="#000000"/><path d="M250.33399,145.17248c-4.54163,0.09206 -8.36484,-6.81324 -8.53937,-15.42342c-0.17453,-8.61018 3.3657,-15.66474 7.90734,-15.7568c4.54163,-0.09206 8.36484,6.81324 8.53937,15.42342c0.17453,8.61018 -3.36571,15.66474 -7.90734,15.7568z" data-paper-data="{&quot;index&quot;:null}" fill="#000000"/><path d="M211.66317,141.35951c-1.70311,0.03452 -3.12263,-1.85506 -3.17057,-4.22049c-0.04795,-2.36543 1.29383,-4.31099 2.99694,-4.34551c1.70311,-0.03452 3.12263,1.85506 3.17057,4.22049c0.04795,2.36543 -1.29383,4.31099 -2.99694,4.34551z" data-paper-data="{&quot;index&quot;:null}" fill="#fafafa"/><path d="M252.34121,142.73233c-1.70311,0.03452 -3.12263,-1.85506 -3.17057,-4.22049c-0.04795,-2.36543 1.29383,-4.31098 2.99694,-4.3455c1.70311,-0.03452 3.12264,1.85506 3.17058,4.22048c0.04795,2.36543 -1.29383,4.31099 -2.99695,4.34551z" data-paper-data="{&quot;index&quot;:null}" fill="#fafafa"/></g></g></svg>